<?xml version="1.0" encoding="UTF-8" standalone="no" ?>
<!DOCTYPE svg PUBLIC "-//W3C//DTD SVG 1.1//EN" "http://www.w3.org/Graphics/SVG/1.1/DTD/svg11.dtd">
<svg xmlns="http://www.w3.org/2000/svg" version="1.1" width="1080" height="1080" viewBox="0 0 1080 1080"
     xml:space="preserve">
<desc>Created with Fabric.js 5.2.4</desc>
<defs>
</defs>
<g transform="matrix(1 0 0 1 540 540)" id="e2161b9c-6674-447f-bcd5-afc305bd8ed4"  >
<rect style="stroke: none; stroke-width: 1; stroke-dasharray: none; stroke-linecap: butt; stroke-dashoffset: 0; stroke-linejoin: miter; stroke-miterlimit: 4; fill: rgb(255,255,255); fill-rule: nonzero; opacity: 1; visibility: hidden;" vector-effect="non-scaling-stroke"  x="-540" y="-540" rx="0" ry="0" width="1080" height="1080" />
</g>
<g transform="matrix(1 0 0 1 540 540)" id="d9af9597-f347-4a51-9cef-9ba9a22cb4f9"  >
</g>
<g transform="matrix(1.06 0 0 1.06 543.4 644.71)"  >
<path style="stroke: none; stroke-width: 1; stroke-dasharray: none; stroke-linecap: butt; stroke-dashoffset: 0; stroke-linejoin: miter; stroke-miterlimit: 4; fill: rgb(35,4,98); fill-rule: nonzero; opacity: 1;" vector-effect="non-scaling-stroke"  transform=" translate(-512.15, -607.65)" d="M 818.903 339.05 L 819.258 680.809 C 812.792 686.784 803.393 691.335 795.899 696.112 L 744.06 729.277 L 513.247 876.245 L 205.042 683.513 L 205.467 683.064 C 206.964 681.706 209.114 680.853 210.866 679.853 L 220.956 673.873 L 266.566 647.128 L 277.963 640.42 C 279.937 639.215 281.993 637.574 284.091 636.635 C 284.735 636.347 285.347 636.366 286.034 636.356 L 512.118 778.615 L 736.122 636.339 L 736.485 386.579 C 744.23 382.711 751.524 377.893 759 373.53 L 800.538 349.565 L 811.506 343.289 C 813.981 341.822 816.229 340.16 818.903 339.05 Z" stroke-linecap="round" />
</g>
<g transform="matrix(1.06 0 0 1.06 542.67 441.36)"  >
<path style="stroke: none; stroke-width: 1; stroke-dasharray: none; stroke-linecap: butt; stroke-dashoffset: 0; stroke-linejoin: miter; stroke-miterlimit: 4; fill: rgb(32,53,144); fill-rule: nonzero; opacity: 1;" vector-effect="non-scaling-stroke"  transform=" translate(-511.47, -415.97)" d="M 205.042 683.513 C 203.559 681.853 204.141 679.03 204.143 676.805 L 204.081 340.229 L 511.483 148.432 C 530.734 158.414 548.733 171.388 567.35 182.535 L 742.376 290.786 L 788.012 319.239 L 809.072 332.341 C 812.146 334.273 816.534 336.34 818.903 339.05 C 816.229 340.16 813.981 341.822 811.506 343.289 L 800.538 349.565 L 759 373.53 C 751.524 377.893 744.23 382.711 736.485 386.579 L 587.835 293.088 L 543.789 265.314 C 533.51 258.798 522.774 251.249 511.654 246.338 C 489.045 258.753 467.406 273.482 445.517 287.137 L 324.825 362.317 C 321.117 364.616 286.656 385.737 286.384 386.669 L 286.034 636.356 C 285.347 636.366 284.735 636.347 284.091 636.635 C 281.993 637.574 279.937 639.215 277.963 640.42 L 266.566 647.128 L 220.956 673.873 L 210.866 679.853 C 209.114 680.853 206.964 681.706 205.467 683.064 L 205.042 683.513 Z" stroke-linecap="round" />
</g>
<g transform="matrix(1.06 0 0 1.06 409.4 493.19)"  >
<path style="stroke: none; stroke-width: 1; stroke-dasharray: none; stroke-linecap: butt; stroke-dashoffset: 0; stroke-linejoin: miter; stroke-miterlimit: 4; fill: rgb(35,4,98); fill-rule: nonzero; opacity: 1;" vector-effect="non-scaling-stroke"  transform=" translate(-385.85, -464.82)" d="M 375.406 463.686 L 342.99 425.465 L 382.582 443.604 C 392.638 447.607 402.332 451.958 412.687 455.251 C 416.159 456.354 420.37 457.867 424 457.982 C 425.388 458.026 426.715 457.556 428 457.093 L 428.711 457.883 L 428.573 504.177 C 422.998 501.275 417.799 497.381 412.654 493.783 C 399.457 484.553 387.129 474.736 375.406 463.686 Z" stroke-linecap="round" />
</g>
<g transform="matrix(1.06 0 0 1.06 421.7 542.48)"  >
<path style="stroke: none; stroke-width: 1; stroke-dasharray: none; stroke-linecap: butt; stroke-dashoffset: 0; stroke-linejoin: miter; stroke-miterlimit: 4; fill: rgb(150,184,219); fill-rule: nonzero; opacity: 1;" vector-effect="non-scaling-stroke"  transform=" translate(-397.44, -511.28)" d="M 375.406 463.686 C 387.129 474.736 399.457 484.553 412.654 493.783 C 417.799 497.381 422.998 501.275 428.573 504.177 L 428.969 504.972 C 408.767 520.27 391.009 538.829 375.583 558.874 C 374.913 557.924 374.443 556.999 373.99 555.925 C 362.056 527.564 364.044 491.836 375.406 463.686 Z" stroke-linecap="round" />
</g>
<g transform="matrix(1.06 0 0 1.06 677.91 523.89)"  >
<path style="stroke: none; stroke-width: 1; stroke-dasharray: none; stroke-linecap: butt; stroke-dashoffset: 0; stroke-linejoin: miter; stroke-miterlimit: 4; fill: rgb(32,53,144); fill-rule: nonzero; opacity: 1;" vector-effect="non-scaling-stroke"  transform=" translate(-638.94, -493.76)" d="M 673.312 429.515 C 675.935 428.168 678.552 426.646 681.359 425.729 L 648.938 460.254 C 654.018 471.01 656.531 482.8 657.762 494.582 C 660.065 516.63 658.039 539.464 650.749 560.492 L 650.229 561.792 L 596.515 500.486 L 597.405 493.417 L 597.129 465.945 C 599.917 463.614 605.606 461.936 609.008 460.308 L 641.449 444.703 L 673.312 429.515 Z" stroke-linecap="round" />
</g>
<g transform="matrix(1.06 0 0 1.06 673.97 492.05)"  >
<path style="stroke: none; stroke-width: 1; stroke-dasharray: none; stroke-linecap: butt; stroke-dashoffset: 0; stroke-linejoin: miter; stroke-miterlimit: 4; fill: rgb(96,131,197); fill-rule: nonzero; opacity: 1;" vector-effect="non-scaling-stroke"  transform=" translate(-635.22, -463.75)" d="M 673.312 429.515 C 671.579 433.263 666.615 437.005 663.674 439.95 C 657.757 445.875 652.079 452.281 645.855 457.868 L 598.25 497.983 L 597.571 497.75 L 597.405 493.417 L 597.129 465.945 C 599.917 463.614 605.606 461.936 609.008 460.308 L 641.449 444.703 L 673.312 429.515 Z" stroke-linecap="round" />
</g>
<g transform="matrix(1.06 0 0 1.06 454.35 594.15)"  >
<path style="stroke: none; stroke-width: 1; stroke-dasharray: none; stroke-linecap: butt; stroke-dashoffset: 0; stroke-linejoin: miter; stroke-miterlimit: 4; fill: rgb(32,53,144); fill-rule: nonzero; opacity: 1;" vector-effect="non-scaling-stroke"  transform=" translate(-428.22, -559.99)" d="M 428.969 504.972 L 470.465 533.211 C 475.437 536.673 481.806 540.111 486.137 544.221 C 486.851 546.703 490.877 548.792 492.966 550.25 C 496.814 552.936 500.552 555.985 504.5 558.501 C 506.425 559.727 510.586 561.51 511.487 563.75 C 512.137 565.367 511.941 567.43 511.947 569.15 L 511.977 578.966 L 511.982 615.008 L 435.614 551.486 L 382.958 579.362 L 344.454 598.797 L 375.583 558.874 C 391.009 538.829 408.767 520.27 428.969 504.972 Z" stroke-linecap="round" />
</g>
<g transform="matrix(1.06 0 0 1.06 474.67 423.21)"  >
<path style="stroke: none; stroke-width: 1; stroke-dasharray: none; stroke-linecap: butt; stroke-dashoffset: 0; stroke-linejoin: miter; stroke-miterlimit: 4; fill: rgb(32,53,144); fill-rule: nonzero; opacity: 1;" vector-effect="non-scaling-stroke"  transform=" translate(-447.36, -398.87)" d="M 507.876 339.787 L 510.448 339.75 C 511.351 341.811 510.815 344.43 511.42 346.661 L 511.424 384.97 L 511.451 396.229 C 511.457 398.272 511.197 400.327 512.061 402.221 L 512.147 402.399 L 429.033 456.25 L 428.711 457.883 L 428 457.093 C 426.715 457.556 425.388 458.026 424 457.982 C 420.37 457.867 416.159 456.354 412.687 455.251 C 402.332 451.958 392.638 447.607 382.582 443.604 C 386.346 436.074 390.893 428.84 395.971 422.126 C 420.829 389.262 460.154 367.41 500.786 361.849 L 507.876 339.787 Z" stroke-linecap="round" />
</g>
<g transform="matrix(1.06 0 0 1.06 609.72 419.9)"  >
<path style="stroke: none; stroke-width: 1; stroke-dasharray: none; stroke-linecap: butt; stroke-dashoffset: 0; stroke-linejoin: miter; stroke-miterlimit: 4; fill: rgb(150,184,219); fill-rule: nonzero; opacity: 1;" vector-effect="non-scaling-stroke"  transform=" translate(-574.66, -395.74)" d="M 507.876 339.787 L 512.047 325.54 C 513.057 329.167 513.333 333.017 513.577 336.76 L 519.731 361.383 C 529.32 362.279 538.874 363.406 548.214 365.841 C 576.316 373.169 602.004 389.463 620.472 411.86 C 628.539 421.644 636.188 433.136 641.449 444.703 L 609.008 460.308 C 605.606 461.936 599.917 463.614 597.129 465.945 L 596.881 454.25 L 595.6 453.842 C 594.412 453.558 593.036 452.407 591.988 451.73 L 583.173 446.105 L 528.215 411.713 C 525.05 409.762 515.403 402.687 512.147 402.399 L 512.061 402.221 C 511.197 400.327 511.457 398.272 511.451 396.229 L 511.424 384.97 L 511.42 346.661 C 510.815 344.43 511.351 341.811 510.448 339.75 L 507.876 339.787 Z" stroke-linecap="round" />
</g>
<g transform="matrix(1.06 0 0 1.06 541.89 386.1)"  >
<path style="stroke: none; stroke-width: 1; stroke-dasharray: none; stroke-linecap: butt; stroke-dashoffset: 0; stroke-linejoin: miter; stroke-miterlimit: 4; fill: rgb(35,4,98); fill-rule: nonzero; opacity: 1;" vector-effect="non-scaling-stroke"  transform=" translate(-510.73, -363.88)" d="M 507.876 339.787 L 512.047 325.54 C 513.057 329.167 513.333 333.017 513.577 336.76 L 513.274 357.578 C 513.242 361.144 513.514 364.979 513.118 368.512 L 513.202 389.406 C 513.218 393.385 513.444 397.496 513.035 401.451 L 512.061 402.221 C 511.197 400.327 511.457 398.272 511.451 396.229 L 511.424 384.97 L 511.42 346.661 C 510.815 344.43 511.351 341.811 510.448 339.75 L 507.876 339.787 Z" stroke-linecap="round" />
</g>
<g transform="matrix(1.06 0 0 1.06 619.97 606.15)"  >
<path style="stroke: none; stroke-width: 1; stroke-dasharray: none; stroke-linecap: butt; stroke-dashoffset: 0; stroke-linejoin: miter; stroke-miterlimit: 4; fill: rgb(35,4,98); fill-rule: nonzero; opacity: 1;" vector-effect="non-scaling-stroke"  transform=" translate(-584.32, -571.3)" d="M 595.6 453.842 L 596.881 454.25 L 597.129 465.945 L 597.405 493.417 L 596.515 500.486 L 650.229 561.792 L 682.502 602.015 L 643.176 581.255 C 638.817 578.096 633.288 576.051 628.489 573.579 L 593.423 554.993 L 513.693 614.193 L 514.457 683.739 C 513.699 685.119 513.767 686.306 513.755 687.833 L 513.755 688.5 L 513.125 688.753 C 512.899 686.652 512.837 684.656 512.251 682.607 L 512.127 682.19 C 511.771 680.432 512.097 677.854 512.09 676.021 L 512.039 663.084 L 511.982 615.008 L 511.977 578.966 L 511.947 569.15 C 511.941 567.43 512.137 565.367 511.487 563.75 C 510.586 561.51 506.425 559.727 504.5 558.501 C 500.552 555.985 496.814 552.936 492.966 550.25 C 490.877 548.792 486.851 546.703 486.137 544.221 L 512.456 561.931 L 595.407 500.901 L 595.6 453.842 Z" stroke-linecap="round" />
</g>
<g transform="matrix(1.06 0 0 1.06 612.84 665.31)"  >
<path style="stroke: none; stroke-width: 1; stroke-dasharray: none; stroke-linecap: butt; stroke-dashoffset: 0; stroke-linejoin: miter; stroke-miterlimit: 4; fill: rgb(32,53,144); fill-rule: nonzero; opacity: 1;" vector-effect="non-scaling-stroke"  transform=" translate(-577.6, -627.06)" d="M 514.457 683.739 L 513.693 614.193 L 593.423 554.993 L 628.489 573.579 C 633.288 576.051 638.817 578.096 643.176 581.255 C 636.487 591.062 630.002 600.791 622.174 609.754 C 597.88 637.571 564.807 654.774 528.75 661.501 L 525.814 661.986 L 525.692 662.513 L 515.512 691.119 L 512.67 699.123 C 511.699 693.656 512.122 687.737 512.127 682.19 L 512.251 682.607 C 512.837 684.656 512.899 686.652 513.125 688.753 L 513.755 688.5 L 513.755 687.833 C 513.767 686.306 513.699 685.119 514.457 683.739 Z" stroke-linecap="round" />
</g>
<g transform="matrix(1.06 0 0 1.06 474.81 644.33)"  >
<path style="stroke: none; stroke-width: 1; stroke-dasharray: none; stroke-linecap: butt; stroke-dashoffset: 0; stroke-linejoin: miter; stroke-miterlimit: 4; fill: rgb(150,184,219); fill-rule: nonzero; opacity: 1;" vector-effect="non-scaling-stroke"  transform=" translate(-447.5, -607.28)" d="M 382.958 579.362 L 435.614 551.486 L 511.982 615.008 L 512.039 663.084 C 504.813 663.049 497.787 662.136 490.75 660.489 C 453.699 651.816 419.677 630.815 396.542 600.428 C 391.494 593.798 387.298 586.462 382.958 579.362 Z" stroke-linecap="round" />
</g>
</svg>